<?xml version="1.0" encoding="UTF-8"?>
<svg version="1.1" viewBox="0 0 2048 559" width="600" height="164" xmlns="http://www.w3.org/2000/svg">
<path transform="translate(251,6)" d="m0 0h26l23 2 22 4 23 6 24 9 19 9 17 10 17 12 14 11 17 16 8 8 9 11 12 16 13 21 13 27 8 22 6 23 4 24 2 27v11l-2 26-4 24-6 23-9 24-5 9-9 10-9 6-11 4-6 1h-11l-10-2-14-7-10-10-6-10-4-13v-15l5-16 6-19 4-20 1-11v-20l-2-17-5-22-8-20-10-19-10-14-11-12v-2l-4-2-7-7-15-11-15-9-15-7-21-7-22-4-20-1-17 1-18 3-18 5-21 9-15 9-16 12-13 12-9 11-9 13-8 14-8 18-5 17-4 23v31l3 19 5 19 8 19 8 15 8 11 8 10 6 7 2 1v2l4 2 10 9 18 12 16 8 14 6 19 5 20 3h29l24-4 17-5 14-5 11-2 13 1 10 3 10 6 6 5 8 11 5 13 1 6v9l-3 13-6 11-9 10-14 8-20 7-21 6-21 4-29 3h-23l-21-2-19-3-24-6-28-10-17-8-19-11-16-11-16-13-15-14-15-16-10-13-9-13-12-20-12-26-8-24-6-26-3-20-1-12v-29l2-21 4-22 5-20 9-25 12-25 11-18 14-19 7-8 9-10 6-7 8-7 13-11 17-12 15-9 12-7 26-11 21-7 23-5 21-3z" fill="#451A42"/>
<path transform="translate(596,104)" d="m0 0h19l10 3 10 7 8 9 5 10 2 8 1 174 2 18 5 13 7 11 8 7 14 7 13 3h28l21-4 18-7 8-4 1-212 3-16 5-9 9-10 8-5 9-3h19l11 4 10 7 8 10 5 13 1 13v236l-1 14-5 12-7 7-15 10-25 12-21 7-23 5-20 3-31 2-28-1-24-4-20-6-16-7-14-9-11-9-9-9-10-14-9-17-7-21-3-15-2-22v-181l2-11 7-14 8-8 12-6z" fill="#451A42"/>
<path transform="translate(1493,111)" d="m0 0h197l12 3 10 6 9 9 6 10 4 14v16l-4 13-7 12-13 15-10 11-9 11-13 14-7 8-12 14-11 12-7 8-12 14-10 11-7 8-12 14-11 12-7 8-9 10-7 9h133l12 3 10 6 7 7 6 12 1 4v16l-4 11-6 8-8 7-12 5-6 1h-199l-14-3-13-7-8-8-6-10-3-8-1-6v-14l4-14 6-10 11-13 12-14 11-12 9-11 14-15 9-11 12-13 7-8 12-14 11-12 9-11 14-15 9-11 11-12 7-8 1-3-7 1-121-1-13-4-9-7-7-9-4-12v-14l3-10 6-9 7-7 10-5z" fill="#451A42"/>
<path transform="translate(1061,111)" d="m0 0h197l11 3 11 6 9 9 8 16 2 8v16l-4 13-9 14-12 14-10 11-7 8-12 14-11 12-7 8-12 14-11 12-7 8-12 14-10 11-7 8-12 14-11 12-9 11-5 6h133l11 3 8 4 9 8 7 14 1 4v15l-4 11-7 9-7 6-12 5-6 1h-200l-13-3-10-5-10-9-7-10-3-9-1-5v-14l3-13 6-11 8-10 10-11 9-11 15-16 9-11 12-13 9-11 13-14 7-8 12-14 18-20 9-11 12-13 9-11 7-8 1-2h-128l-13-4-9-7-6-7-4-9-1-4v-17l5-12 6-8 8-6 9-4z" fill="#451A42"/>
<path transform="translate(1807,111)" d="m0 0h197l9 2 10 5 10 9 6 9 5 13 1 5v14l-4 14-9 14-12 14-10 11-7 8-12 14-10 11-7 8-12 14-11 12-9 11-13 14-1 2h-2l-2 4-11 12-9 11-13 14-7 8-7 9h133l11 3 8 4 9 8 7 14 1 4v14l-3 10-6 9-9 8-12 5-6 1h-199l-14-3-13-7-9-9-7-13-2-8v-16l3-11 6-12 11-13 12-14 10-11 9-11 15-16 9-11 12-13 9-11 13-14 7-8 12-14 11-12 9-11 11-12 7-8 3-5-7 1-121-1-13-4-9-7-6-7-5-13v-16l4-11 7-10 10-7 7-3z" fill="#451A42"/>
<path transform="translate(1368,104)" d="m0 0h18l12 4 9 7 7 8 5 11 2 11v270l-3 14-4 8-9 10-7 5-12 4h-18l-11-4-10-8-7-9-4-8-2-8-1-52v-106l1-121 4-13 7-10 8-7 8-4z" fill="#451A42"/>
<path transform="translate(933,104)" d="m0 0h19l11 4 9 7 8 9 5 12 1 5v278l-4 13-5 8-5 6-11 7-9 3h-19l-12-5-10-9-7-9-4-10-1-5v-277l4-13 6-9 5-5 8-6z" fill="#451A42"/>
<path transform="translate(483,437)" d="m0 0h20l12 3 14 8 9 8 7 10 5 11 3 12v14l-2 10-5 12-6 9-4 5-12 9-11 5-12 3h-15l-16-4-11-6-10-9-8-10-5-11-2-7-1-8v-10l3-14 7-14 8-10 12-9 11-5z" fill="#451A42"/>
</svg>
