<?xml version="1.0" encoding="UTF-8"?>
<!DOCTYPE svg PUBLIC "-//W3C//DTD SVG 1.1//EN" "http://www.w3.org/Graphics/SVG/1.1/DTD/svg11.dtd">
<svg xmlns="http://www.w3.org/2000/svg" version="1.1" width="93px" height="88px" style="shape-rendering:geometricPrecision; text-rendering:geometricPrecision; image-rendering:optimizeQuality; fill-rule:evenodd; clip-rule:evenodd" xmlns:xlink="http://www.w3.org/1999/xlink">
<g><path style="opacity:1" fill="#7c7c7c" d="M 35.5,0.5 C 36.552,0.350549 37.552,0.517215 38.5,1C 33.4469,1.68362 28.7802,3.35029 24.5,6C 20.8856,9.44244 17.5522,12.9424 14.5,16.5C 12.8333,16.5 11.1667,16.5 9.5,16.5C 14.2803,12.9244 18.9469,9.09107 23.5,5C 27.2186,2.63609 31.2186,1.13609 35.5,0.5 Z"/></g>
<g><path style="opacity:1" fill="#f6f6f6" d="M 35.5,0.5 C 35.5,0.166667 35.5,-0.166667 35.5,-0.5C 36.8333,-0.5 38.1667,-0.5 39.5,-0.5C 47.7045,-0.070238 55.7045,1.7631 63.5,5C 66.0302,7.03291 68.3635,9.19958 70.5,11.5C 71.4408,13.0495 72.1075,14.7162 72.5,16.5C 73.9303,19.989 74.7637,23.6557 75,27.5C 77.207,30.0779 79.0404,32.9113 80.5,36C 79.1667,36.6667 77.8333,37.3333 76.5,38C 77.7839,38.6838 78.9505,38.5171 80,37.5C 80.49,38.7932 80.6567,40.1266 80.5,41.5C 75.2063,41.6822 75.2063,42.1822 80.5,43C 77.7235,43.7757 75.3902,45.609 73.5,48.5C 69.8183,48.3347 66.1516,48.5014 62.5,49C 58.3327,51.6351 53.9994,52.4684 49.5,51.5C 48.7784,51.9175 48.2784,52.5842 48,53.5C 45.5828,51.8724 43.0828,50.539 40.5,49.5C 40.2131,47.8793 39.2131,46.8793 37.5,46.5C 33.2337,47.3047 32.567,45.9714 35.5,42.5C 36.6266,41.8783 37.6266,41.045 38.5,40C 41.8333,39.6667 45.1667,39.3333 48.5,39C 45.5184,38.502 42.5184,38.3354 39.5,38.5C 39.9775,34.3104 38.3108,31.3104 34.5,29.5C 30.289,25.3104 25.289,22.3104 19.5,20.5C 16.5918,19.8407 16.2584,19.0074 18.5,18C 16.9419,17.79 15.6085,17.29 14.5,16.5C 17.5522,12.9424 20.8856,9.44244 24.5,6C 28.7802,3.35029 33.4469,1.68362 38.5,1C 37.552,0.517215 36.552,0.350549 35.5,0.5 Z"/></g>
<g><path style="opacity:1" fill="#767676" d="M 39.5,-0.5 C 44.8333,-0.5 50.1667,-0.5 55.5,-0.5C 62.0144,1.35308 67.3478,5.01975 71.5,10.5C 70.8333,10.5 70.5,10.8333 70.5,11.5C 68.3635,9.19958 66.0302,7.03291 63.5,5C 55.7045,1.7631 47.7045,-0.070238 39.5,-0.5 Z"/></g>
<g><path style="opacity:1" fill="#383838" d="M 71.5,10.5 C 77.4925,10.7382 78.4925,12.7382 74.5,16.5C 73.8333,16.5 73.1667,16.5 72.5,16.5C 72.1075,14.7162 71.4408,13.0495 70.5,11.5C 70.5,10.8333 70.8333,10.5 71.5,10.5 Z"/></g>
<g><path style="opacity:1" fill="#2b2b2b" d="M 67.5,13.5 C 68.3764,13.3691 69.0431,13.7025 69.5,14.5C 67.1916,15.8734 66.5249,15.5401 67.5,13.5 Z"/></g>
<g><path style="opacity:1" fill="#161616" d="M 9.5,16.5 C 11.1667,16.5 12.8333,16.5 14.5,16.5C 15.6085,17.29 16.9419,17.79 18.5,18C 16.2584,19.0074 16.5918,19.8407 19.5,20.5C 16.3601,21.6408 13.0267,21.8075 9.5,21C 8.17723,20.1841 7.51056,19.0174 7.5,17.5C 7.84171,16.6618 8.50838,16.3284 9.5,16.5 Z"/></g>
<g><path style="opacity:1" fill="#454545" d="M 43.5,16.5 C 45.3635,15.2072 47.3635,15.2072 49.5,16.5C 47.4844,17.6942 45.4844,17.6942 43.5,16.5 Z"/></g>
<g><path style="opacity:1" fill="#727272" d="M 19.5,17.5 C 21.2646,16.5386 23.2646,16.2053 25.5,16.5C 25.5,17.5 25.5,18.5 25.5,19.5C 23.2821,19.3862 21.2821,18.7196 19.5,17.5 Z"/></g>
<g><path style="opacity:1" fill="#7d7d7d" d="M 7.5,17.5 C 7.51056,19.0174 8.17723,20.1841 9.5,21C 13.0267,21.8075 16.3601,21.6408 19.5,20.5C 25.289,22.3104 30.289,25.3104 34.5,29.5C 34.0618,29.4346 33.7284,29.6012 33.5,30C 35.7744,31.7651 37.4411,33.9318 38.5,36.5C 37.4814,38.5107 36.4814,40.5107 35.5,42.5C 32.567,45.9714 33.2337,47.3047 37.5,46.5C 39.2131,46.8793 40.2131,47.8793 40.5,49.5C 39.1054,48.1854 38.1054,48.5188 37.5,50.5C 36.6365,49.537 35.9698,49.537 35.5,50.5C 43.2404,58.2458 51.2404,65.5791 59.5,72.5C 58.1667,74.5 56.5,76.1667 54.5,77.5C 49.4431,72.4382 44.1098,67.7715 38.5,63.5C 34.7865,59.7833 30.7865,56.4499 26.5,53.5C 24.3501,55.1491 22.3501,56.9824 20.5,59C 19.5,59.1667 18.5,59.3333 17.5,59.5C 14.6074,58.6047 11.9407,57.2713 9.5,55.5C 5.10791,50.0456 1.77458,44.0456 -0.5,37.5C -0.5,35.5 -0.5,33.5 -0.5,31.5C 0.823506,27.0388 3.49017,23.5388 7.5,21C 5.07279,19.4455 5.07279,18.2789 7.5,17.5 Z"/></g>
<g><path style="opacity:1" fill="#252525" d="M 70.5,27.5 C 69.6993,25.9582 69.366,24.2915 69.5,22.5C 70.5,22.5 71.5,22.5 72.5,22.5C 72.9227,24.7812 72.256,26.4479 70.5,27.5 Z"/></g>
<g><path style="opacity:1" fill="#101010" d="M 45.5,24.5 C 49.1612,24.3501 50.1612,25.8501 48.5,29C 47.552,29.4828 46.552,29.6495 45.5,29.5C 45.5,27.8333 45.5,26.1667 45.5,24.5 Z"/></g>
<g><path style="opacity:1" fill="#121212" d="M 64.5,28.5 C 64.2322,30.099 64.5655,31.4324 65.5,32.5C 68.6352,35.3472 71.4685,35.0139 74,31.5C 75.8674,33.7564 75.8674,36.0898 74,38.5C 71.302,39.2798 68.9686,40.6131 67,42.5C 65.0314,40.6131 62.698,39.2798 60,38.5C 58.317,33.5429 59.817,30.2095 64.5,28.5 Z"/></g>
<g><path style="opacity:1" fill="#777777" d="M 70.5,27.5 C 69.0813,28.4511 67.4147,28.7845 65.5,28.5C 65.5,29.8333 65.5,31.1667 65.5,32.5C 64.5655,31.4324 64.2322,30.099 64.5,28.5C 66.2646,27.5386 68.2646,27.2053 70.5,27.5 Z"/></g>
<g><path style="opacity:1" fill="#8c8c8c" d="M 72.5,16.5 C 73.1667,16.5 73.8333,16.5 74.5,16.5C 75.9307,19.9942 76.764,23.6609 77,27.5C 78.9986,29.4935 80.4986,31.8268 81.5,34.5C 85.1073,35.4892 88.774,35.8226 92.5,35.5C 92.5,36.1667 92.5,36.8333 92.5,37.5C 89.1667,37.5 85.8333,37.5 82.5,37.5C 82.5,38.8333 82.5,40.1667 82.5,41.5C 82.5,41.8333 82.5,42.1667 82.5,42.5C 81.5116,43.795 80.5116,45.1283 79.5,46.5C 78.8333,46.5 78.5,46.8333 78.5,47.5C 77.0048,47.9887 75.6715,48.6554 74.5,49.5C 73.8333,49.5 73.5,49.1667 73.5,48.5C 75.3902,45.609 77.7235,43.7757 80.5,43C 75.2063,42.1822 75.2063,41.6822 80.5,41.5C 80.6567,40.1266 80.49,38.7932 80,37.5C 78.9505,38.5171 77.7839,38.6838 76.5,38C 77.8333,37.3333 79.1667,36.6667 80.5,36C 79.0404,32.9113 77.207,30.0779 75,27.5C 74.7637,23.6557 73.9303,19.989 72.5,16.5 Z"/></g>
<g><path style="opacity:1" fill="#424242" d="M 34.5,29.5 C 38.3108,31.3104 39.9775,34.3104 39.5,38.5C 42.5184,38.3354 45.5184,38.502 48.5,39C 45.1667,39.3333 41.8333,39.6667 38.5,40C 37.6266,41.045 36.6266,41.8783 35.5,42.5C 36.4814,40.5107 37.4814,38.5107 38.5,36.5C 37.4411,33.9318 35.7744,31.7651 33.5,30C 33.7284,29.6012 34.0618,29.4346 34.5,29.5 Z"/></g>
<g><path style="opacity:1" fill="#adadad" d="M 82.5,41.5 C 85.3919,41.7211 88.0585,42.5544 90.5,44C 87.5806,44.4326 84.914,43.9326 82.5,42.5C 82.5,42.1667 82.5,41.8333 82.5,41.5 Z"/></g>
<g><path style="opacity:1" fill="#b2b2b2" d="M 78.5,47.5 C 78.5,46.8333 78.8333,46.5 79.5,46.5C 82.2446,47.7372 84.5779,49.5705 86.5,52C 83.5037,51.3293 80.837,49.8293 78.5,47.5 Z"/></g>
<g><path style="opacity:1" fill="#0e0e0e" d="M 40.5,49.5 C 43.0828,50.539 45.5828,51.8724 48,53.5C 48.2784,52.5842 48.7784,51.9175 49.5,51.5C 53.9994,52.4684 58.3327,51.6351 62.5,49C 66.1516,48.5014 69.8183,48.3347 73.5,48.5C 73.5,49.1667 73.8333,49.5 74.5,49.5C 77.1808,56.1682 81.3475,61.8349 87,66.5C 90.2246,71.3988 91.2246,76.7322 90,82.5C 88.6288,84.0414 87.1288,85.3747 85.5,86.5C 82.8806,86.7683 80.3806,86.435 78,85.5C 77.5026,82.854 77.3359,80.1873 77.5,77.5C 78.4793,76.2347 79.4793,74.9014 80.5,73.5C 78.4287,73.9245 76.4287,73.2578 74.5,71.5C 71.7716,67.1585 68.4382,66.4918 64.5,69.5C 62.9382,69.7329 61.6049,70.3995 60.5,71.5C 52.5539,64.8909 44.8872,57.8909 37.5,50.5C 38.1054,48.5188 39.1054,48.1854 40.5,49.5 Z"/></g>
<g><path style="opacity:1" fill="#969696" d="M 49.5,51.5 C 50.5618,49.2435 52.2285,48.0768 54.5,48C 53.2107,49.8022 51.5441,50.9688 49.5,51.5 Z"/></g>
<g><path style="opacity:1" fill="#090909" d="M 38.5,63.5 C 43.1449,68.4797 47.8116,73.4797 52.5,78.5C 51.675,79.3857 50.675,79.719 49.5,79.5C 39.6788,76.2821 33.1788,69.6154 30,59.5C 29.2937,61.9712 29.627,64.3046 31,66.5C 35.0436,73.9419 41.2103,78.6085 49.5,80.5C 50.8333,80.8333 52.1667,81.1667 53.5,81.5C 54.5137,82.6737 55.847,83.3404 57.5,83.5C 58.1667,84.8333 58.8333,86.1667 59.5,87.5C 41.5,87.5 23.5,87.5 5.5,87.5C 4.76929,76.4379 6.10263,65.7712 9.5,55.5C 11.9407,57.2713 14.6074,58.6047 17.5,59.5C 18.5,59.3333 19.5,59.1667 20.5,59C 22.3501,56.9824 24.3501,55.1491 26.5,53.5C 30.7865,56.4499 34.7865,59.7833 38.5,63.5 Z"/></g>
<g><path style="opacity:1" fill="#b1b0b0" d="M 37.5,50.5 C 44.8872,57.8909 52.5539,64.8909 60.5,71.5C 60.5,72.1667 60.1667,72.5 59.5,72.5C 51.2404,65.5791 43.2404,58.2458 35.5,50.5C 35.9698,49.537 36.6365,49.537 37.5,50.5 Z"/></g>
<g><path style="opacity:1" fill="#dfa1a4" d="M 74.5,71.5 C 72.5107,70.5186 70.5107,69.5186 68.5,68.5C 67.1508,68.8457 65.8175,69.179 64.5,69.5C 68.4382,66.4918 71.7716,67.1585 74.5,71.5 Z"/></g>
<g><path style="opacity:1" fill="#717171" d="M 49.5,79.5 C 49.5,79.8333 49.5,80.1667 49.5,80.5C 41.2103,78.6085 35.0436,73.9419 31,66.5C 29.627,64.3046 29.2937,61.9712 30,59.5C 33.1788,69.6154 39.6788,76.2821 49.5,79.5 Z"/></g>
<g><path style="opacity:1" fill="#f04e54" d="M 74.5,71.5 C 75.7945,73.3284 76.7945,75.3284 77.5,77.5C 76.9807,80.9386 75.9807,84.272 74.5,87.5C 70.8333,87.5 67.1667,87.5 63.5,87.5C 65.1667,85.1667 67.1667,83.1667 69.5,81.5C 72.2178,79.5774 71.8845,78.244 68.5,77.5C 66.8716,76.1472 65.5383,76.4805 64.5,78.5C 63.5084,78.3284 62.8417,78.6618 62.5,79.5C 60.5544,80.0347 59.5544,81.368 59.5,83.5C 58.8333,83.5 58.1667,83.5 57.5,83.5C 55.847,83.3404 54.5137,82.6737 53.5,81.5C 53.4326,80.0413 53.7659,78.7079 54.5,77.5C 56.5,76.1667 58.1667,74.5 59.5,72.5C 60.1667,72.5 60.5,72.1667 60.5,71.5C 61.6049,70.3995 62.9382,69.7329 64.5,69.5C 65.8175,69.179 67.1508,68.8457 68.5,68.5C 70.5107,69.5186 72.5107,70.5186 74.5,71.5 Z"/></g>
<g><path style="opacity:1" fill="#b3b1b1" d="M 38.5,63.5 C 44.1098,67.7715 49.4431,72.4382 54.5,77.5C 53.7659,78.7079 53.4326,80.0413 53.5,81.5C 52.1667,81.1667 50.8333,80.8333 49.5,80.5C 49.5,80.1667 49.5,79.8333 49.5,79.5C 50.675,79.719 51.675,79.3857 52.5,78.5C 47.8116,73.4797 43.1449,68.4797 38.5,63.5 Z"/></g>
<g><path style="opacity:1" fill="#8c7172" d="M 74.5,71.5 C 76.4287,73.2578 78.4287,73.9245 80.5,73.5C 79.4793,74.9014 78.4793,76.2347 77.5,77.5C 76.7945,75.3284 75.7945,73.3284 74.5,71.5 Z"/></g>
<g><path style="opacity:1" fill="#bba9aa" d="M 68.5,77.5 C 67.1667,77.8333 65.8333,78.1667 64.5,78.5C 65.5383,76.4805 66.8716,76.1472 68.5,77.5 Z"/></g>
<g><path style="opacity:1" fill="#141414" d="M 68.5,77.5 C 69.2341,78.7079 69.5674,80.0413 69.5,81.5C 67.1667,83.1667 65.1667,85.1667 63.5,87.5C 62.5,87.5 61.5,87.5 60.5,87.5C 60.1667,86.1667 59.8333,84.8333 59.5,83.5C 60.9744,82.5637 61.9744,81.2303 62.5,79.5C 62.8417,78.6618 63.5084,78.3284 64.5,78.5C 65.8333,78.1667 67.1667,77.8333 68.5,77.5 Z"/></g>
<g><path style="opacity:1" fill="#bfa1a2" d="M 68.5,77.5 C 71.8845,78.244 72.2178,79.5774 69.5,81.5C 69.5674,80.0413 69.2341,78.7079 68.5,77.5 Z"/></g>
<g><path style="opacity:1" fill="#757575" d="M 10.5,66.5 C 10.9005,73.4364 12.4005,80.103 15,86.5C 10.5024,80.5127 9.00244,73.8461 10.5,66.5 Z"/></g>
<g><path style="opacity:1" fill="#c6a5a7" d="M 62.5,79.5 C 61.9744,81.2303 60.9744,82.5637 59.5,83.5C 59.5544,81.368 60.5544,80.0347 62.5,79.5 Z"/></g>
<g><path style="opacity:1" fill="#b7acad" d="M 57.5,83.5 C 58.1667,83.5 58.8333,83.5 59.5,83.5C 59.8333,84.8333 60.1667,86.1667 60.5,87.5C 60.1667,87.5 59.8333,87.5 59.5,87.5C 58.8333,86.1667 58.1667,84.8333 57.5,83.5 Z"/></g>
<g><path style="opacity:1" fill="#6e6a6a" d="M 77.5,77.5 C 77.3359,80.1873 77.5026,82.854 78,85.5C 80.3806,86.435 82.8806,86.7683 85.5,86.5C 85.5,86.8333 85.5,87.1667 85.5,87.5C 81.8333,87.5 78.1667,87.5 74.5,87.5C 75.9807,84.272 76.9807,80.9386 77.5,77.5 Z"/></g>
</svg>
